<svg width="299" height="306" viewBox="0 0 299 306" fill="none" xmlns="http://www.w3.org/2000/svg">
<g filter="url(#filter0_d_0_371)">
<ellipse cx="149.5" cy="150" rx="146.5" ry="150" fill="#5F37A8"/>
</g>
<ellipse cx="149.5" cy="143.35" rx="146.5" ry="143.35" fill="#834EE3"/>
<ellipse cx="149.5" cy="143.35" rx="146.5" ry="143.35" fill="url(#paint0_linear_0_371)"/>
<ellipse cx="149.5" cy="146.305" rx="112.465" ry="112.315" fill="#BABFD4"/>
<ellipse cx="149.5" cy="152.216" rx="112.465" ry="106.404" fill="url(#paint1_linear_0_371)"/>
<path d="M185.839 95.4653C192.364 91.4118 198.617 90.5334 203.448 92.9937C214.275 98.5078 212.708 119.031 208.277 127.924C205.776 132.944 201.342 136.613 195.086 138.843C192.664 146.544 189.258 153.161 184.913 158.634C187.76 161.024 191.384 162.359 195.177 162.359H195.359L201.463 156.313C203 154.792 205.492 154.791 207.028 156.313C208.564 157.835 208.564 160.302 207.028 161.824L206.488 162.359H207.716C209.889 162.359 211.651 164.104 211.651 166.255C211.651 168.407 209.889 170.152 207.716 170.152H206.488L207.029 170.687C208.565 172.209 208.565 174.676 207.029 176.198C206.261 176.959 205.253 177.339 204.247 177.339C203.239 177.339 202.232 176.959 201.463 176.198L195.359 170.152H195.177C189.389 170.152 183.865 168.072 179.569 164.359C178.728 165.123 177.865 165.858 176.973 166.557C169.432 172.473 160.214 175.915 149.439 176.857C150.795 180.96 151.059 185.401 150.13 189.734L150.092 189.915L154.79 197.335C155.972 199.203 155.439 201.691 153.599 202.891C152.936 203.323 152.194 203.53 151.461 203.53C150.159 203.53 148.883 202.878 148.126 201.682L147.71 201.026L147.448 202.252C147.044 204.134 145.404 205.418 143.582 205.418C143.302 205.418 143.019 205.388 142.735 205.326C140.598 204.853 139.243 202.712 139.708 200.542L139.97 199.316L139.324 199.738C137.484 200.938 135.034 200.397 133.851 198.529C132.668 196.661 133.202 194.174 135.042 192.973L142.352 188.205L142.391 188.023C143.192 184.285 142.664 180.427 140.952 177.09C137.831 177.002 134.6 176.733 131.259 176.279C121.794 174.993 116.425 179.182 115.004 180.497C103.855 190.819 101.695 209.062 101.674 209.246C101.487 210.913 100.29 212.288 98.6724 212.691C98.355 212.77 98.0337 212.808 97.7163 212.808C96.4177 212.808 95.1749 212.166 94.4224 211.05C94.2447 210.787 90.0483 204.495 88.2075 195.615C85.7078 183.555 88.6879 172.492 96.8267 163.622C101.546 158.477 107.573 154.568 114.255 152.316C114.344 152.286 114.433 152.257 114.522 152.228C114.235 152.301 113.948 152.376 113.663 152.454C111.557 151.47 109.233 150.941 106.842 150.941H106.661L100.534 156.987C99.7625 157.748 98.7513 158.128 97.7407 158.128C96.7301 158.128 95.719 157.748 94.9478 156.987C93.4059 155.465 93.4061 152.998 94.9478 151.476L95.4907 150.94H94.2573C92.0764 150.94 90.3081 149.196 90.3081 147.044C90.3081 144.892 92.0764 143.148 94.2573 143.148H95.4907L94.9478 142.613C93.406 141.091 93.4061 138.624 94.9478 137.102C96.49 135.581 98.9907 135.581 100.533 137.102L106.661 143.147H106.842C113.302 143.147 119.434 145.718 123.909 150.249C127.476 149.891 131.116 149.951 134.72 150.441C144.712 151.798 152.885 150.401 159.194 146.28C155.681 141.935 153.721 136.43 153.721 130.67V130.485L147.68 124.231C146.16 122.657 146.16 120.104 147.68 118.53C149.201 116.956 151.666 116.956 153.186 118.53L153.72 119.083V117.824C153.72 115.598 155.464 113.794 157.614 113.793C159.764 113.793 161.507 115.598 161.507 117.824V119.083L162.042 118.53C163.562 116.956 166.028 116.956 167.548 118.53C169.864 120.928 168.194 123.562 167.548 124.231C166.903 124.899 161.507 130.485 161.507 130.485V130.671C161.507 134.478 162.791 138.117 165.088 141.005C167.939 137.585 170.182 133.285 171.806 128.111C170.618 124.818 168.773 117.018 173.479 108.172C175.944 103.54 180.68 98.6712 185.839 95.4653Z" fill="#3B4262"/>
<defs>
<filter id="filter0_d_0_371" x="0" y="0" width="299" height="306" filterUnits="userSpaceOnUse" color-interpolation-filters="sRGB">
<feFlood flood-opacity="0" result="BackgroundImageFix"/>
<feColorMatrix in="SourceAlpha" type="matrix" values="0 0 0 0 0 0 0 0 0 0 0 0 0 0 0 0 0 0 127 0" result="hardAlpha"/>
<feOffset dy="3"/>
<feGaussianBlur stdDeviation="1.5"/>
<feColorMatrix type="matrix" values="0 0 0 0 0 0 0 0 0 0 0 0 0 0 0 0 0 0 0.196706 0"/>
<feBlend mode="normal" in2="BackgroundImageFix" result="effect1_dropShadow_0_371"/>
<feBlend mode="normal" in="SourceGraphic" in2="effect1_dropShadow_0_371" result="shape"/>
</filter>
<linearGradient id="paint0_linear_0_371" x1="3" y1="0" x2="3" y2="286.699" gradientUnits="userSpaceOnUse">
<stop stop-color="white" stop-opacity="0.0966455"/>
<stop offset="1" stop-color="white" stop-opacity="0.01"/>
</linearGradient>
<linearGradient id="paint1_linear_0_371" x1="260.101" y1="258.62" x2="260.101" y2="49.3393" gradientUnits="userSpaceOnUse">
<stop stop-color="#F3F3F3"/>
<stop offset="1" stop-color="#DADADA"/>
</linearGradient>
</defs>
</svg>
