<svg width="293" height="300" viewBox="0 0 293 300" fill="none" xmlns="http://www.w3.org/2000/svg">
<ellipse cx="146.5" cy="150" rx="146.5" ry="150" fill="#2A45C2"/>
<ellipse cx="146.5" cy="143.35" rx="146.5" ry="143.35" fill="#4664F4"/>
<ellipse cx="146.5" cy="143.35" rx="146.5" ry="143.35" fill="url(#paint0_linear_0_1578)"/>
<ellipse cx="146.5" cy="146.306" rx="112.465" ry="112.315" fill="#BABFD4"/>
<ellipse cx="146.5" cy="152.217" rx="112.465" ry="106.404" fill="url(#paint1_linear_0_1578)"/>
<path d="M190.197 117.226C189.368 116.908 188.505 116.771 187.709 116.826C186.558 116.907 185.628 117.376 185.078 118.143C181.835 122.7 179.179 131.305 177.037 138.22C176.054 141.418 174.735 145.697 173.779 147.728C172.782 142.038 173.908 121.194 174.345 113.167L174.352 113.037C174.655 107.46 174.695 106.482 174.629 106.053C174.148 102.993 172.926 100.985 170.995 100.087C169.043 99.175 166.508 99.5783 163.777 101.227C162.408 102.057 162.03 104.908 160.854 117.83L160.85 117.886C160.203 124.985 158.714 141.331 156.881 144.053C154.813 140.245 151.967 118.606 150.739 109.239C149.88 102.679 149.379 98.913 149.043 97.7756C148.335 95.3924 145.344 93.3645 142.383 93.2521C139.918 93.1295 137.896 94.3871 136.931 96.5722C135.125 98.5879 135.763 105.272 137.759 121.104C138.709 128.638 140.67 144.202 139.436 145.947C136.975 145.679 132.751 135.93 126.878 116.964C125.231 111.652 124.721 110.055 124.215 109.355C123.217 106.919 119.827 105.041 116.788 105.253C116.528 105.271 116.276 105.305 116.026 105.353C114.435 105.67 110.805 107.139 111.579 113.918C113.723 123.317 116.051 130.219 118.311 136.917L118.357 137.051C119.709 141.063 120.988 144.854 122.176 149.061C124.976 158.994 123.887 165.157 123.874 165.226C123.78 165.86 123.585 166.248 123.292 166.383C123.186 166.433 123.05 166.462 122.898 166.473C122.011 166.535 120.68 165.946 119.994 165.562C118.427 162.558 110.626 148.242 103.558 146.257L103.304 146.181L103.047 146.205C100.454 146.451 98.5478 147.434 97.3828 149.126C95.5366 151.803 96.3008 155.212 96.4862 155.896L96.5904 156.141C96.6481 156.244 102.317 166.61 103.194 171.432C103.951 175.566 107.865 180.047 111.011 183.647L111.141 183.794C112.168 184.972 113.054 185.99 113.752 186.932C122.883 196.486 137.323 204.521 137.441 204.586C139.243 205.92 140.245 207.208 140.35 208.318C140.418 209.044 140.042 209.478 140.028 209.493L139.714 209.822L141.71 211.768L179.807 209.083L181.431 201.617C186.454 180.531 185.406 162.552 185.389 162.432C185.407 161.771 186.815 155.374 187.947 150.205L187.98 150.074C190.237 139.777 193.043 126.966 193.582 122.093C193.816 120.01 192.487 118.096 190.197 117.226Z" fill="#3B4262"/>
<defs>
<linearGradient id="paint0_linear_0_1578" x1="0" y1="0" x2="0" y2="286.699" gradientUnits="userSpaceOnUse">
<stop stop-color="white" stop-opacity="0.0966455"/>
<stop offset="1" stop-color="white" stop-opacity="0.01"/>
</linearGradient>
<linearGradient id="paint1_linear_0_1578" x1="257.1" y1="258.621" x2="257.1" y2="49.3403" gradientUnits="userSpaceOnUse">
<stop stop-color="#F3F3F3"/>
<stop offset="1" stop-color="#DADADA"/>
</linearGradient>
</defs>
</svg>
