<svg width="293" height="300" viewBox="0 0 293 300" fill="none" xmlns="http://www.w3.org/2000/svg">
<ellipse cx="146.5" cy="150" rx="146.5" ry="150" fill="#9D1634"/>
<ellipse cx="146.5" cy="143.35" rx="146.5" ry="143.35" fill="#DB2E4D"/>
<ellipse cx="146.5" cy="143.35" rx="146.5" ry="143.35" fill="url(#paint0_linear_0_1590)"/>
<ellipse cx="146.5" cy="146.306" rx="112.465" ry="112.315" fill="#BABFD4"/>
<ellipse cx="146.5" cy="152.217" rx="112.465" ry="106.404" fill="url(#paint1_linear_0_1590)"/>
<path d="M190.067 130.175C188.77 113.766 170.398 115.441 170.398 115.441C162.643 101.729 150.529 111.661 150.529 111.661C141.222 98.222 129.554 110.675 129.554 110.675C109.435 108.499 110.214 124.999 110.214 124.999C109.741 130.244 113.05 146.472 113.05 146.472C110.065 137.119 103.591 144.883 103.591 144.883C95.6323 157.202 101.623 163.946 101.623 163.946C112.393 176.608 135.344 191.803 135.344 191.803C143.654 196.579 140.139 200.837 140.139 200.837L190.405 192.506L191.56 182.944C199.202 159.761 190.067 130.175 190.067 130.175Z" fill="#3B4262"/>
<defs>
<linearGradient id="paint0_linear_0_1590" x1="0" y1="0" x2="0" y2="286.699" gradientUnits="userSpaceOnUse">
<stop stop-color="white" stop-opacity="0.0966455"/>
<stop offset="1" stop-color="white" stop-opacity="0.01"/>
</linearGradient>
<linearGradient id="paint1_linear_0_1590" x1="257.101" y1="258.621" x2="257.101" y2="49.3403" gradientUnits="userSpaceOnUse">
<stop stop-color="#F3F3F3"/>
<stop offset="1" stop-color="#DADADA"/>
</linearGradient>
</defs>
</svg>
