<svg width="293" height="300" viewBox="0 0 293 300" fill="none" xmlns="http://www.w3.org/2000/svg">
<ellipse cx="146.5" cy="150" rx="146.5" ry="150" fill="#C76C1B"/>
<ellipse cx="146.5" cy="143.35" rx="146.5" ry="143.35" fill="#EB9F0E"/>
<ellipse cx="146.5" cy="143.35" rx="146.5" ry="143.35" fill="url(#paint0_linear_0_1677)"/>
<ellipse cx="146.5" cy="146.305" rx="112.465" ry="112.315" fill="#BABFD4"/>
<ellipse cx="146.5" cy="152.217" rx="112.465" ry="106.404" fill="url(#paint1_linear_0_1677)"/>
<path d="M117.141 145.344L129.289 128.285C124.239 127.445 114.967 127.258 107.372 134.844C95.3992 146.8 90.5503 172.63 89.5395 178.882L119.968 209.271C125.446 208.802 149.699 205.568 173.068 182.23C173.316 181.726 179.009 177.525 174.355 172.877C172.133 170.659 168.456 170.7 166.186 172.967C165.031 174.121 163.234 174.138 162.102 173.008C160.971 171.878 160.988 170.083 162.143 168.929L170.401 160.682C174.598 156.491 170.642 149.421 164.785 151.12L158.024 156.9C156.789 157.974 154.954 157.788 153.94 156.617C152.891 155.404 153.115 153.568 154.309 152.535C177.924 131.843 174.477 134.335 189.67 120.113C195.346 115.393 188.206 107.044 182.612 111.824L145.857 144.832C144.788 145.741 143.149 145.758 142.097 144.79C140.883 143.743 140.855 142.234 141.649 141.042L167.286 101.239C171.033 96.171 163.658 90.5421 159.711 95.6515L121.805 148.596C120.891 149.916 119.048 150.219 117.793 149.295C116.534 148.451 116.189 146.619 117.141 145.344Z" fill="#3B4262"/>
<defs>
<linearGradient id="paint0_linear_0_1677" x1="0" y1="0" x2="0" y2="286.699" gradientUnits="userSpaceOnUse">
<stop stop-color="white" stop-opacity="0.0966455"/>
<stop offset="1" stop-color="white" stop-opacity="0.01"/>
</linearGradient>
<linearGradient id="paint1_linear_0_1677" x1="257.1" y1="258.621" x2="257.1" y2="49.3401" gradientUnits="userSpaceOnUse">
<stop stop-color="#F3F3F3"/>
<stop offset="1" stop-color="#DADADA"/>
</linearGradient>
</defs>
</svg>
