<svg width="299" height="306" viewBox="0 0 299 306" fill="none" xmlns="http://www.w3.org/2000/svg">
<g filter="url(#filter0_d_0_349)">
<ellipse cx="149.5" cy="150" rx="146.5" ry="150" fill="#2D8DAB"/>
</g>
<ellipse cx="149.5" cy="143.35" rx="146.5" ry="143.35" fill="#3FB7CD"/>
<ellipse cx="149.5" cy="143.35" rx="146.5" ry="143.35" fill="url(#paint0_linear_0_349)"/>
<ellipse cx="149.5" cy="146.305" rx="112.465" ry="112.315" fill="#BABFD4"/>
<ellipse cx="149.5" cy="152.216" rx="112.465" ry="106.404" fill="url(#paint1_linear_0_349)"/>
<path d="M199.091 154.908L197.347 153.167C193.18 149.003 186.369 148.096 181.282 151.016L170.419 157.217L172.683 107.552C172.683 103.389 169.291 99.9995 165.12 99.9995C164.219 99.9995 163.352 100.158 162.547 100.449L162.817 97.7841C162.817 93.5726 159.373 90.1475 155.143 90.1475C151.232 90.1475 147.951 93.0773 147.537 96.8342L140.567 138.894C140.475 139.466 139.483 139.408 139.377 139.048L131.144 105.328C130.243 102.191 127.334 99.9997 124.068 99.9997C121.808 99.9997 119.708 101.015 118.301 102.785C116.9 104.556 116.389 106.833 116.909 109.03L118.509 115.82C117.598 115.745 116.683 115.868 115.811 116.161C112.564 117.241 110.584 120.479 111.109 123.899L115.956 151.724C115.956 162.702 117.882 170.824 119.501 175.702C120.421 178.485 120.888 181.413 120.888 184.403C120.888 187.005 120.527 189.596 119.809 192.097L116.052 205.235C115.84 205.978 115.989 206.777 116.451 207.395C116.919 208.011 117.646 208.374 118.422 208.374H162.817C163.612 208.374 164.354 207.994 164.816 207.352C165.284 206.71 165.409 205.882 165.158 205.132C165.134 205.067 163.072 198.707 165.023 190.055C167.5 188.049 176.166 181.011 179.278 178.173C184.422 173.48 198.517 158.981 199.115 158.365C200.054 157.4 200.045 155.861 199.091 154.908Z" fill="#3B4262"/>
<defs>
<filter id="filter0_d_0_349" x="0" y="0" width="299" height="306" filterUnits="userSpaceOnUse" color-interpolation-filters="sRGB">
<feFlood flood-opacity="0" result="BackgroundImageFix"/>
<feColorMatrix in="SourceAlpha" type="matrix" values="0 0 0 0 0 0 0 0 0 0 0 0 0 0 0 0 0 0 127 0" result="hardAlpha"/>
<feOffset dy="3"/>
<feGaussianBlur stdDeviation="1.5"/>
<feColorMatrix type="matrix" values="0 0 0 0 0 0 0 0 0 0 0 0 0 0 0 0 0 0 0.196706 0"/>
<feBlend mode="normal" in2="BackgroundImageFix" result="effect1_dropShadow_0_349"/>
<feBlend mode="normal" in="SourceGraphic" in2="effect1_dropShadow_0_349" result="shape"/>
</filter>
<linearGradient id="paint0_linear_0_349" x1="3" y1="0" x2="3" y2="286.699" gradientUnits="userSpaceOnUse">
<stop stop-color="white" stop-opacity="0.0966455"/>
<stop offset="1" stop-color="white" stop-opacity="0.01"/>
</linearGradient>
<linearGradient id="paint1_linear_0_349" x1="260.101" y1="258.62" x2="260.101" y2="49.3393" gradientUnits="userSpaceOnUse">
<stop stop-color="#F3F3F3"/>
<stop offset="1" stop-color="#DADADA"/>
</linearGradient>
</defs>
</svg>
